<?xml version="1.0" standalone="no"?>
<!DOCTYPE svg PUBLIC "-//W3C//DTD SVG 20010904//EN"
 "http://www.w3.org/TR/2001/REC-SVG-20010904/DTD/svg10.dtd">
<svg version="1.0" xmlns="http://www.w3.org/2000/svg"
 width="256.000000pt" height="256.000000pt" viewBox="0 0 256.000000 256.000000"
 preserveAspectRatio="xMidYMid meet">

<g transform="translate(0.000000,256.000000) scale(0.100000,-0.100000)"
fill="#000000" stroke="none">
<path d="M212 2469 c-46 -13 -109 -79 -122 -128 -7 -27 -10 -365 -8 -1083 l3
-1043 24 -38 c13 -21 42 -50 64 -65 l41 -27 786 0 786 0 41 27 c71 47 87 86
92 216 l3 112 -40 0 -40 0 -4 -105 c-3 -103 -4 -105 -36 -137 l-32 -33 -770 0
-770 0 -32 33 -33 32 0 1050 0 1050 33 32 32 33 644 3 644 2 4 -125 3 -125 33
-32 32 -33 125 -3 125 -4 0 -419 0 -419 40 0 40 0 0 448 0 447 -173 173 -172
172 -665 -1 c-386 0 -679 -5 -698 -10z m1492 -307 c-47 -2 -81 2 -90 9 -10 8
-14 35 -14 93 l0 81 90 -90 91 -90 -77 -3z"/>
<path d="M320 2200 l0 -40 40 0 40 0 0 40 0 40 -40 0 -40 0 0 -40z"/>
<path d="M480 2200 l0 -40 120 0 120 0 0 40 0 40 -120 0 -120 0 0 -40z"/>
<path d="M320 2040 l0 -40 200 0 200 0 0 40 0 40 -200 0 -200 0 0 -40z"/>
<path d="M447 1702 c-114 -114 -207 -215 -207 -223 0 -8 67 -81 148 -162 l149
-149 -4 -46 c-5 -59 21 -105 70 -123 25 -9 39 -23 52 -52 13 -29 28 -44 60
-58 30 -13 45 -27 49 -45 8 -31 52 -74 77 -74 11 0 25 -17 39 -44 32 -68 101
-93 164 -61 28 15 31 14 55 -9 37 -33 65 -46 103 -46 46 0 94 32 109 73 9 27
22 39 51 50 30 12 43 25 59 61 13 31 26 46 39 46 24 0 80 56 80 80 0 13 15 26
44 39 83 36 100 130 37 195 -17 18 -31 36 -31 42 0 5 30 39 66 74 36 36 70 73
76 84 8 16 -20 48 -203 232 -117 118 -220 214 -228 214 -9 0 -43 -26 -76 -59
-38 -37 -71 -61 -91 -64 -28 -5 -37 1 -95 59 l-63 64 -86 0 -86 0 -54 55 c-31
31 -63 55 -75 55 -14 0 -92 -71 -228 -208z m263 83 l24 -26 -169 -169 -169
-170 -28 27 -29 27 168 168 c92 92 170 168 174 168 3 0 16 -11 29 -25z m398
-228 c89 -90 162 -170 162 -178 0 -19 -20 -39 -39 -39 -8 0 -58 43 -112 95
-53 52 -104 95 -114 95 -9 0 -28 -9 -42 -20 -31 -24 -109 -27 -139 -6 -17 13
-22 12 -46 -12 -28 -26 -28 -26 -8 -47 l20 -21 -100 -99 -100 -100 -70 70 -70
70 177 177 178 178 70 0 71 0 162 -163z m365 -25 l168 -168 -31 -29 -31 -29
-164 164 c-91 91 -165 169 -165 174 0 11 40 56 49 56 4 0 82 -76 174 -168z
m-296 -261 c90 -46 204 57 164 147 -8 17 24 -9 83 -68 53 -52 96 -98 96 -102
0 -5 -17 -8 -39 -8 -46 0 -88 -29 -107 -77 -8 -18 -21 -33 -28 -33 -23 0 -76
-50 -91 -86 -8 -19 -21 -34 -30 -34 -21 0 -85 -63 -85 -83 0 -8 -20 -25 -44
-37 -36 -17 -48 -30 -60 -63 -9 -23 -15 -50 -13 -61 3 -26 -28 -44 -50 -30
-35 22 -26 45 38 110 l63 64 -29 30 -29 30 -68 -67 c-57 -57 -71 -66 -86 -57
-36 23 -27 54 37 118 l61 62 -28 27 -28 27 -59 -60 c-59 -60 -89 -72 -113 -48
-21 21 -13 39 50 104 l62 65 -27 27 -27 26 -63 -62 c-34 -34 -69 -62 -78 -62
-20 0 -39 20 -39 40 0 9 64 80 143 158 105 104 150 142 168 142 13 0 35 6 49
14 24 13 28 10 105 -64 44 -43 90 -83 102 -89z m365 -148 c39 -38 46 -61 26
-81 -21 -21 -41 -13 -85 30 -45 45 -50 57 -31 76 21 21 51 13 90 -25z m-113
-118 c45 -49 47 -60 14 -82 -20 -14 -25 -11 -67 27 -47 43 -56 66 -34 88 22
22 45 13 87 -33z m-119 -101 c41 -37 51 -69 28 -92 -19 -19 -35 -14 -78 24
-41 37 -51 69 -28 92 19 19 35 14 78 -24z m-115 -115 c46 -42 55 -65 33 -87
-21 -21 -41 -13 -85 30 -47 46 -51 59 -27 82 22 23 29 21 79 -25z"/>
<path d="M2205 1430 c-49 -24 -775 -748 -775 -772 0 -66 -24 -123 -76 -179
-49 -53 -54 -63 -54 -105 0 -39 5 -51 34 -80 29 -29 41 -34 80 -34 42 0 52 5
105 54 56 52 113 76 179 76 25 0 748 726 772 776 22 44 26 117 9 161 -14 38
-67 92 -106 109 -46 20 -121 17 -168 -6z m171 -94 c45 -45 48 -107 7 -158 -15
-18 -28 -34 -28 -35 -1 -2 -40 36 -88 84 -48 48 -86 87 -84 88 1 0 17 13 35
28 51 41 113 38 158 -7z m-98 -263 c-9 -12 -27 2 -94 68 -66 66 -81 86 -72 96
9 12 27 -2 94 -68 66 -66 81 -86 72 -96z m-208 62 l24 -26 -239 -239 -240
-240 -27 28 -28 28 237 237 c131 130 241 237 244 237 3 0 16 -11 29 -25z m110
-110 l24 -26 -234 -236 c-129 -131 -236 -239 -238 -242 -1 -2 -16 8 -32 24
l-31 29 238 238 c131 131 240 238 244 238 3 0 16 -11 29 -25z m-590 -480 c41
-41 72 -76 69 -78 -2 -3 -24 -7 -49 -11 -43 -6 -47 -5 -83 32 -35 36 -37 41
-31 85 4 26 10 47 13 47 4 0 40 -34 81 -75z m-122 -172 c-23 -24 -40 -33 -58
-31 -39 5 -39 43 1 84 l33 34 28 -27 28 -27 -32 -33z"/>
<path d="M320 920 l0 -40 120 0 120 0 0 40 0 40 -120 0 -120 0 0 -40z"/>
<path d="M320 760 l0 -40 160 0 160 0 0 40 0 40 -160 0 -160 0 0 -40z"/>
<path d="M320 600 l0 -40 200 0 200 0 0 40 0 40 -200 0 -200 0 0 -40z"/>
<path d="M840 360 l0 -40 200 0 200 0 0 40 0 40 -200 0 -200 0 0 -40z"/>
</g>
</svg>
