<?xml version="1.0" standalone="no"?>
<!DOCTYPE svg PUBLIC "-//W3C//DTD SVG 20010904//EN"
 "http://www.w3.org/TR/2001/REC-SVG-20010904/DTD/svg10.dtd">
<svg version="1.0" xmlns="http://www.w3.org/2000/svg"
 width="512.000000pt" height="512.000000pt" viewBox="0 0 512.000000 512.000000"
 preserveAspectRatio="xMidYMid meet">

<g transform="translate(0.000000,512.000000) scale(0.100000,-0.100000)"
fill="#ffffff" stroke="none">
<path d="M1038 5110 c-267 -49 -487 -215 -598 -453 -49 -104 -72 -208 -72
-332 -1 -167 46 -326 133 -450 l39 -56 -107 -247 c-120 -276 -127 -310 -84
-371 13 -18 44 -42 68 -53 23 -10 43 -21 43 -24 0 -3 -23 -59 -51 -125 l-51
-119 -75 0 c-92 0 -143 -25 -178 -85 -43 -74 -105 -234 -105 -269 0 -43 83
-258 118 -305 32 -44 159 -103 222 -104 64 -1 280 85 322 129 24 24 97 185
295 645 146 338 269 619 274 625 5 6 33 14 62 17 162 20 362 131 473 264 27
32 49 60 51 62 1 1 48 -14 105 -34 137 -49 277 -83 406 -100 59 -8 110 -15
115 -15 4 0 7 -232 7 -515 0 -488 1 -517 20 -567 26 -68 90 -133 158 -158 51
-20 79 -20 1157 -20 1078 0 1106 0 1157 20 68 25 132 90 158 158 19 51 20 81
20 1157 0 1076 -1 1106 -20 1157 -26 68 -90 133 -158 158 -51 19 -78 20 -756
20 -673 0 -705 -1 -727 -19 -32 -26 -32 -86 0 -112 22 -18 54 -19 720 -19 673
0 697 -1 728 -20 67 -40 63 34 63 -1165 0 -1199 4 -1125 -63 -1165 -31 -19
-59 -20 -1122 -20 -1063 0 -1091 1 -1122 20 -67 40 -63 -34 -63 1165 0 1199
-4 1125 63 1165 29 18 52 20 278 20 233 0 246 1 267 20 14 14 22 33 22 55 0
22 -8 41 -22 55 -21 19 -34 20 -275 20 -293 0 -326 -7 -401 -83 -83 -84 -82
-77 -82 -662 l0 -515 -42 5 c-140 19 -249 43 -370 82 -76 24 -138 47 -138 51
0 4 12 43 27 87 24 72 27 95 27 230 1 130 -2 160 -22 225 -50 159 -140 297
-259 395 -75 62 -215 135 -308 160 -71 19 -260 28 -327 15z m330 -176 c195
-65 343 -213 413 -414 41 -117 30 -373 -20 -449 -7 -11 -20 -7 -70 20 -33 18
-61 38 -61 44 0 5 7 32 15 59 32 104 15 248 -42 361 -35 68 -132 167 -202 204
-274 146 -620 6 -712 -289 -92 -292 102 -598 406 -642 142 -20 294 26 398 122
l52 48 68 -35 68 -34 -30 -38 c-71 -89 -226 -178 -361 -207 -150 -32 -341 3
-469 86 -192 124 -301 325 -301 555 0 116 20 198 72 298 89 171 270 300 472
337 83 15 217 3 304 -26z m-60 -299 c72 -32 143 -102 175 -173 18 -38 22 -65
22 -144 0 -53 -3 -99 -6 -102 -4 -4 -20 1 -36 11 -26 14 -35 15 -60 4 -30 -12
-53 -46 -53 -77 0 -9 14 -29 30 -46 30 -29 30 -31 14 -49 -31 -34 -136 -79
-200 -85 -218 -23 -410 182 -374 399 22 136 130 252 267 287 63 15 154 5 221
-25z m-586 -978 c78 -53 190 -101 276 -118 34 -7 62 -17 62 -21 0 -15 -492
-1153 -503 -1165 -17 -16 -188 -85 -212 -85 -11 0 -41 9 -66 21 -45 20 -47 23
-88 129 l-43 109 38 89 c20 49 41 94 46 101 5 6 46 13 96 15 127 5 134 11 218
205 75 175 84 222 48 270 -18 24 -76 65 -109 76 -8 3 161 417 170 417 1 0 31
-20 67 -43z"/>
<path d="M3668 4687 c-56 -26 -811 -678 -827 -714 -15 -34 -14 -69 5 -109 20
-43 55 -62 128 -70 l55 -7 3 -397 3 -398 30 -44 c17 -23 51 -54 75 -68 l45
-25 600 0 600 0 45 25 c24 14 58 45 75 68 l30 44 3 397 3 398 53 6 c71 7 110
28 130 71 21 44 20 84 -2 119 -29 46 -762 676 -817 703 -68 33 -170 33 -237 1z
m174 -135 c19 -8 691 -590 696 -603 2 -5 -321 -9 -753 -9 -416 0 -755 4 -753
8 5 13 678 596 697 604 9 4 34 7 56 7 22 0 47 -3 57 -7z m548 -1135 c0 -306
-3 -377 -14 -393 -13 -17 -30 -19 -145 -23 l-131 -3 0 235 0 235 -28 53 c-22
43 -38 59 -81 81 -52 27 -58 28 -206 28 -148 0 -154 -1 -206 -28 -43 -22 -59
-38 -81 -81 l-28 -53 0 -235 0 -235 -131 3 c-115 4 -132 6 -145 23 -11 16 -14
87 -14 393 l0 373 605 0 605 0 0 -373z m-458 46 c16 -15 18 -36 18 -240 l0
-223 -165 0 -165 0 0 222 c0 192 2 224 17 240 14 16 33 18 146 18 107 0 134
-3 149 -17z"/>
<path d="M2053 2026 c-151 -49 -247 -174 -247 -321 -1 -123 57 -235 151 -295
24 -15 163 -81 308 -146 146 -64 265 -120 265 -124 0 -4 -24 -20 -52 -35 -29
-16 -98 -56 -154 -91 l-101 -62 -574 450 c-360 282 -597 461 -634 479 -80 38
-161 46 -245 25 l-65 -17 -111 57 c-102 52 -118 58 -191 62 -99 6 -168 -13
-243 -65 -148 -104 -198 -295 -119 -463 54 -115 69 -125 670 -437 l544 -283
440 -345 c242 -190 467 -358 500 -375 105 -53 118 -52 800 49 336 50 646 95
690 102 89 13 121 28 135 65 13 33 -12 82 -45 90 -14 3 -341 -40 -726 -97
-644 -94 -704 -102 -747 -90 -52 14 -62 21 -637 471 -208 162 -513 401 -678
530 -263 206 -304 241 -326 285 -43 83 -30 184 33 253 53 59 159 85 234 58 27
-10 239 -169 583 -438 298 -233 572 -447 610 -477 47 -36 79 -54 97 -53 16 0
92 41 182 96 178 110 529 288 673 341 286 105 506 127 716 74 240 -61 413
-234 467 -464 20 -81 40 -108 84 -108 77 0 92 70 45 211 -93 277 -307 455
-630 523 -89 19 -322 16 -425 -5 -153 -32 -341 -98 -543 -190 l-77 -36 -328
146 c-180 81 -339 155 -355 166 -40 28 -70 94 -71 153 -1 65 28 121 83 160 36
25 52 30 104 30 59 0 80 -8 382 -145 l320 -145 85 0 c83 0 87 1 200 57 182 91
346 125 513 107 153 -17 292 -108 392 -256 19 -29 44 -57 54 -63 12 -6 123
-10 290 -10 l271 0 0 -515 0 -515 -289 0 c-266 0 -291 -1 -312 -18 -33 -27
-30 -78 5 -109 l28 -24 500 3 500 3 19 24 c18 22 19 48 19 638 l0 614 -25 24
-24 25 -453 0 -453 0 -45 61 c-145 199 -387 300 -648 271 -132 -15 -254 -52
-391 -118 -76 -36 -126 -54 -152 -54 -28 0 -127 40 -363 146 -305 136 -330
146 -398 150 -46 2 -89 -1 -115 -10z m-1555 -201 l72 -34 -30 -48 c-82 -132
-74 -297 20 -421 l40 -52 -168 86 c-92 48 -181 98 -199 110 -17 13 -44 49 -58
79 -23 45 -27 65 -23 110 7 78 48 141 117 177 76 40 135 38 229 -7z m4472
-910 l0 -515 -85 0 -85 0 0 515 0 515 85 0 85 0 0 -515z"/>
</g>
</svg>
