<svg width="300" height="221" viewBox="0 0 300 221" fill="none" xmlns="http://www.w3.org/2000/svg">
<g filter="url(#filter0_d_4249_7529)">
<rect x="13.2031" y="10.6523" width="77.8753" height="48.2827" rx="12.46" fill="white"/>
<g clip-path="url(#clip0_4249_7529)">
<path d="M59.7367 24.1163C58.5499 22.7636 56.4045 22.1836 53.6598 22.1836H45.6942C45.4226 22.1836 45.16 22.2805 44.9535 22.4568C44.7469 22.6332 44.6101 22.8774 44.5676 23.1456L41.2508 44.1813C41.1849 44.5961 41.5061 44.9717 41.9265 44.9717H46.8442L48.0793 37.138L48.0409 37.3833C48.1289 36.8295 48.6025 36.4211 49.1633 36.4211H51.5002C56.091 36.4211 59.6857 34.5564 60.7358 29.1623C60.7669 29.0028 60.7939 28.8475 60.8173 28.6958C60.6847 28.6256 60.6847 28.6256 60.8173 28.6958C61.13 26.7021 60.8151 25.345 59.7367 24.1163Z" fill="#27346A"/>
<path d="M49.961 27.9776C50.0954 27.9136 50.2425 27.8804 50.3914 27.8805H56.6363C57.3758 27.8805 58.0656 27.9286 58.6959 28.0301C58.8723 28.0582 59.0477 28.0918 59.222 28.1308C59.4691 28.1853 59.7132 28.252 59.9537 28.3307C60.2635 28.4342 60.5521 28.5547 60.8174 28.6958C61.13 26.7013 60.8151 25.345 59.7367 24.1163C58.5492 22.7636 56.4045 22.1836 53.6598 22.1836H45.6935C45.1326 22.1836 44.6555 22.5919 44.5676 23.1456L41.2508 44.1805C41.1849 44.596 41.5061 44.9711 41.9258 44.9711H46.8442L49.4066 28.7221C49.4318 28.5623 49.4954 28.4111 49.592 28.2815C49.6885 28.1518 49.8152 28.0475 49.961 27.9776Z" fill="#27346A"/>
<path d="M60.7348 29.1638C59.6847 34.5571 56.0901 36.4226 51.4992 36.4226H49.1617C48.6009 36.4226 48.1272 36.831 48.0401 37.3847L46.5036 47.125C46.4462 47.4881 46.7269 47.817 47.0942 47.817H51.2397C51.4772 47.8169 51.7068 47.7322 51.8874 47.5779C52.0679 47.4236 52.1875 47.21 52.2246 46.9755L52.265 46.7642L53.0463 41.8124L53.0966 41.5388C53.1337 41.3042 53.2533 41.0906 53.4338 40.9364C53.6143 40.7821 53.844 40.6973 54.0814 40.6972H54.7018C58.7176 40.6972 61.8621 39.0658 62.781 34.3473C63.1645 32.3755 62.9661 30.7292 61.9514 29.5729C61.6437 29.2226 61.2615 28.9334 60.8163 28.6973C60.7922 28.8497 60.766 29.0042 60.7348 29.1638Z" fill="#2790C3"/>
<path d="M59.7158 28.2601C59.552 28.2123 59.3868 28.1699 59.2202 28.1331C59.0458 28.0948 58.8704 28.0615 58.6941 28.0332C58.0631 27.931 57.3739 27.8828 56.6337 27.8828H50.3895C50.2405 27.8825 50.0933 27.9159 49.9591 27.9807C49.8131 28.0504 49.6864 28.1546 49.5897 28.2843C49.4931 28.414 49.4296 28.5653 49.4046 28.7251L48.0774 37.1403L48.0391 37.3857C48.1264 36.8319 48.5999 36.4235 49.1608 36.4235H51.4984C56.0892 36.4235 59.6838 34.5588 60.7339 29.1647C60.7651 29.0052 60.7914 28.8506 60.8155 28.6982C60.5496 28.5578 60.2617 28.4365 59.9518 28.3337C59.8736 28.3078 59.7949 28.2832 59.7159 28.2601" fill="#1F264F"/>
</g>
</g>
<g filter="url(#filter1_d_4249_7529)">
<rect x="111.324" y="10.6523" width="77.8753" height="48.2827" rx="12.46" fill="white"/>
</g>
<g clip-path="url(#clip1_4249_7529)">
<path d="M140.353 48.0696V46.4669C140.353 45.8524 139.979 45.4519 139.337 45.4519C139.017 45.4519 138.67 45.5587 138.429 45.906C138.242 45.6121 137.975 45.4519 137.575 45.4519C137.307 45.4519 137.04 45.5319 136.827 45.8258V45.5053H136.266V48.0696H136.827V46.6538C136.827 46.1998 137.067 45.986 137.441 45.986C137.815 45.986 138.002 46.2265 138.002 46.6538V48.0696H138.563V46.6538C138.563 46.1998 138.83 45.986 139.177 45.986C139.551 45.986 139.738 46.2265 139.738 46.6538V48.0696H140.353ZM148.66 45.5053H147.752V44.7307H147.191V45.5053H146.683V46.0127H147.191V47.1881C147.191 47.7758 147.431 48.123 148.072 48.123C148.313 48.123 148.58 48.0429 148.767 47.9361L148.606 47.4552C148.446 47.5621 148.259 47.5888 148.126 47.5888C147.859 47.5888 147.752 47.4286 147.752 47.1614V46.0127H148.66V45.5053ZM153.415 45.4518C153.094 45.4518 152.88 45.6121 152.747 45.8258V45.5053H152.186V48.0696H152.747V46.6272C152.747 46.1998 152.934 45.9594 153.281 45.9594C153.388 45.9594 153.521 45.9862 153.628 46.0128L153.789 45.4786C153.682 45.4519 153.521 45.4519 153.415 45.4519V45.4518ZM146.229 45.719C145.962 45.5319 145.588 45.4519 145.187 45.4519C144.546 45.4519 144.119 45.7724 144.119 46.2799C144.119 46.7074 144.439 46.9477 145 47.0279L145.268 47.0546C145.561 47.1079 145.722 47.1881 145.722 47.3217C145.722 47.5086 145.508 47.6422 145.134 47.6422C144.76 47.6422 144.466 47.5086 144.279 47.3751L144.012 47.8025C144.306 48.0162 144.707 48.123 145.107 48.123C145.855 48.123 146.283 47.7758 146.283 47.295C146.283 46.8409 145.935 46.6004 145.401 46.5203L145.134 46.4936C144.893 46.4668 144.707 46.4135 144.707 46.2533C144.707 46.0662 144.893 45.9594 145.187 45.9594C145.508 45.9594 145.828 46.0929 145.989 46.1731L146.229 45.719ZM161.134 45.4519C160.814 45.4519 160.6 45.6121 160.466 45.8258V45.5053H159.906V48.0696H160.466V46.6272C160.466 46.1998 160.653 45.9594 161.001 45.9594C161.108 45.9594 161.241 45.9862 161.348 46.0128L161.508 45.4786C161.401 45.4519 161.241 45.4519 161.134 45.4519ZM153.976 46.7874C153.976 47.562 154.51 48.123 155.338 48.123C155.712 48.123 155.979 48.0429 156.246 47.8293L155.979 47.3751C155.765 47.5354 155.552 47.6155 155.311 47.6155C154.857 47.6155 154.537 47.295 154.537 46.7874C154.537 46.3067 154.857 45.986 155.311 45.9594C155.552 45.9594 155.765 46.0395 155.979 46.1998L156.246 45.7457C155.979 45.5319 155.712 45.4519 155.338 45.4519C154.51 45.4519 153.976 46.0128 153.976 46.7874ZM159.158 46.7874V45.5053H158.597V45.8258C158.41 45.5855 158.143 45.4519 157.795 45.4519C157.074 45.4519 156.513 46.0128 156.513 46.7874C156.513 47.562 157.074 48.123 157.795 48.123C158.169 48.123 158.436 47.9895 158.597 47.7491V48.0696H159.158V46.7874ZM157.101 46.7874C157.101 46.3333 157.395 45.9594 157.875 45.9594C158.33 45.9594 158.65 46.3067 158.65 46.7874C158.65 47.2415 158.33 47.6155 157.875 47.6155C157.395 47.5887 157.101 47.2415 157.101 46.7874ZM150.396 45.4519C149.648 45.4519 149.114 45.986 149.114 46.7874C149.114 47.5888 149.648 48.123 150.423 48.123C150.797 48.123 151.171 48.0162 151.465 47.7758L151.197 47.3751C150.984 47.5354 150.717 47.6422 150.45 47.6422C150.102 47.6422 149.755 47.482 149.675 47.0278H151.572V46.8142C151.598 45.986 151.117 45.4519 150.396 45.4519H150.396ZM150.396 45.9326C150.743 45.9326 150.984 46.1464 151.037 46.5471H149.702C149.755 46.1998 149.996 45.9326 150.396 45.9326ZM164.313 46.7874V44.4902H163.752V45.8258C163.565 45.5855 163.298 45.4519 162.951 45.4519C162.229 45.4519 161.669 46.0128 161.669 46.7874C161.669 47.562 162.229 48.123 162.951 48.123C163.325 48.123 163.592 47.9895 163.752 47.7491V48.0696H164.313V46.7874ZM162.256 46.7874C162.256 46.3333 162.55 45.9594 163.031 45.9594C163.485 45.9594 163.805 46.3067 163.805 46.7874C163.805 47.2415 163.485 47.6155 163.031 47.6155C162.55 47.5887 162.256 47.2415 162.256 46.7874ZM143.504 46.7874V45.5053H142.944V45.8258C142.757 45.5855 142.489 45.4519 142.142 45.4519C141.421 45.4519 140.86 46.0128 140.86 46.7874C140.86 47.562 141.421 48.123 142.142 48.123C142.516 48.123 142.783 47.9895 142.944 47.7491V48.0696H143.504V46.7874ZM141.421 46.7874C141.421 46.3333 141.715 45.9594 142.196 45.9594C142.65 45.9594 142.97 46.3067 142.97 46.7874C142.97 47.2415 142.65 47.6155 142.196 47.6155C141.715 47.5887 141.421 47.2415 141.421 46.7874Z" fill="#091030"/>
<path d="M146.039 26.0312H154.453V41.1501H146.039V26.0312Z" fill="#FF5F00"/>
<path d="M146.574 33.5928C146.574 30.521 148.017 27.7963 150.234 26.0333C148.604 24.7512 146.548 23.9766 144.304 23.9766C138.988 23.9766 134.688 28.2771 134.688 33.5928C134.688 38.9084 138.988 43.2091 144.304 43.2091C146.548 43.2091 148.604 42.4345 150.234 41.1522C148.017 39.4159 146.574 36.6646 146.574 33.5928Z" fill="#EB001B"/>
<path d="M165.804 33.5928C165.804 38.9084 161.503 43.2091 156.188 43.2091C153.944 43.2091 151.887 42.4345 150.258 41.1522C152.502 39.3893 153.917 36.6646 153.917 33.5928C153.917 30.521 152.475 27.7963 150.258 26.0333C151.887 24.7512 153.944 23.9766 156.188 23.9766C161.503 23.9766 165.804 28.3039 165.804 33.5928H165.804Z" fill="#F79E1B"/>
</g>
<g filter="url(#filter2_d_4249_7529)">
<rect x="209.449" y="10.6523" width="77.8753" height="48.2827" rx="12.46" fill="white"/>
</g>
<g clip-path="url(#clip2_4249_7529)">
<path d="M234.552 28.8208C234.039 29.4314 233.223 29.9152 232.408 29.8443C232.3 29.0212 232.707 28.1394 233.175 27.5929C233.686 26.9701 234.58 26.5231 235.305 26.4863C235.391 27.3463 235.056 28.1912 234.553 28.8208H234.552ZM235.297 30.0065C234.113 29.9343 233.096 30.6865 232.535 30.6865C231.961 30.6865 231.101 30.0419 230.165 30.0637C228.951 30.0787 227.815 30.7724 227.198 31.8885C225.913 34.1086 226.864 37.3957 228.099 39.2055C228.703 40.0995 229.425 41.0794 230.377 41.0521C231.278 41.0153 231.641 40.4566 232.727 40.4566C233.827 40.4566 234.139 41.0521 235.098 41.0303C236.084 41.0153 236.708 40.1363 237.311 39.2423C238 38.227 238.283 37.2321 238.298 37.1831C238.283 37.1613 236.389 36.4308 236.375 34.2299C236.36 32.3832 237.865 31.5042 237.929 31.4538C237.084 30.1768 235.75 30.0419 235.296 30.0078L235.297 30.0065ZM242.133 27.5071V40.9376H244.198V36.3463H247.053C249.657 36.3463 251.489 34.5365 251.489 31.924C251.489 29.306 249.694 27.5084 247.124 27.5084L242.133 27.5071ZM244.198 29.2678H246.576C248.364 29.2678 249.387 30.2327 249.387 31.9294C249.387 33.6261 248.364 34.5992 246.562 34.5992H244.198V29.2678ZM255.249 41.0371C256.548 41.0371 257.747 40.3775 258.295 39.3254H258.338V40.9376H260.246V34.2503C260.246 32.3206 258.715 31.0654 256.35 31.0654C254.164 31.0654 252.545 32.3355 252.489 34.0745H254.341C254.498 33.2445 255.25 32.7049 256.294 32.7049C257.557 32.7049 258.261 33.3004 258.261 34.3948V35.132L255.692 35.2888C253.292 35.4373 252 36.424 252 38.1493C252 39.8883 253.335 41.0385 255.25 41.0385L255.249 41.0371ZM255.81 39.4467C254.709 39.4467 254.007 38.9139 254.007 38.0989C254.007 37.2539 254.682 36.7565 255.966 36.6775L258.259 36.5357V37.2948C258.259 38.5527 257.202 39.4467 255.802 39.4467H255.81ZM262.795 44.5927C264.802 44.5927 265.748 43.8118 266.571 41.4623L270.191 31.199H268.098L265.67 39.1265H265.627L263.2 31.199H261.042L264.535 40.9731L264.35 41.5686C264.03 42.5703 263.52 42.9587 262.611 42.9587C262.447 42.9587 262.135 42.9383 262.007 42.9246V44.5368C262.127 44.5709 262.639 44.5859 262.788 44.5859L262.795 44.5927Z" fill="#091030"/>
</g>
<g filter="url(#filter3_d_4249_7529)">
<rect x="13.2031" y="83.8555" width="77.8753" height="48.2827" rx="12.46" fill="white"/>
</g>
<g clip-path="url(#clip3_4249_7529)">
<path d="M70.8347 105.663L65.9555 116.565H64.4462L66.2592 112.75L63.0468 105.661H64.6343L66.9589 111.094H66.9893L69.2402 105.661L70.8347 105.663ZM50.563 109.034V113.45H49.0293V102.548H53.0873C54.0506 102.522 54.9887 102.858 55.7156 103.491C56.434 104.081 56.8289 104.915 56.8172 105.797C56.8221 106.241 56.7254 106.68 56.5345 107.08C56.3436 107.481 56.0635 107.833 55.7156 108.109C55.0101 108.729 54.134 109.034 53.0873 109.034H50.563ZM50.5572 103.893V107.695H53.1247C53.6837 107.715 54.228 107.514 54.6398 107.136C55.0358 106.783 55.2542 106.302 55.2542 105.803C55.2542 105.298 55.0346 104.817 54.6398 104.47C54.4381 104.278 54.2004 104.128 53.9403 104.029C53.6802 103.929 53.403 103.883 53.1247 103.892L50.5572 103.893ZM59.8894 105.663C60.8624 105.663 61.6357 105.936 62.2011 106.478C62.7665 107.02 63.0468 107.762 63.0468 108.704V113.212H61.7817V112.196H61.7268C61.179 113.03 60.4547 113.449 59.5483 113.449C58.7691 113.449 58.1243 113.212 57.601 112.731C57.3485 112.507 57.1475 112.232 57.012 111.923C56.8765 111.614 56.8096 111.28 56.816 110.942C56.816 110.188 57.0894 109.586 57.6431 109.135C58.1909 108.692 58.9268 108.466 59.845 108.466C60.63 108.466 61.2748 108.618 61.7794 108.916V108.599C61.781 108.369 61.7335 108.142 61.64 107.932C61.5466 107.722 61.4093 107.535 61.2374 107.382C60.8912 107.058 60.4337 106.879 59.9595 106.883C59.2235 106.883 58.6395 107.206 58.2073 107.85L57.045 107.096C57.6839 106.14 58.6325 105.66 59.8859 105.66L59.8894 105.663ZM58.1804 110.974C58.1778 111.147 58.2161 111.318 58.2922 111.474C58.3683 111.629 58.4801 111.765 58.6184 111.869C58.9105 112.106 59.2761 112.234 59.6464 112.227C60.2001 112.227 60.7351 111.996 61.1311 111.588C61.5504 111.199 61.7887 110.652 61.7887 110.079C61.3752 109.738 60.8028 109.568 60.0669 109.568C59.5249 109.568 59.081 109.702 58.7224 109.969C58.3638 110.243 58.1804 110.572 58.1804 110.973V110.974ZM39.8127 102.548C41.3855 102.529 42.9064 103.11 44.0659 104.173L42.2529 105.95C41.5907 105.335 40.716 105.002 39.8127 105.019C39.0245 105.023 38.2571 105.272 37.6171 105.732C36.9771 106.192 36.4964 106.84 36.2418 107.586C35.9742 108.359 35.9742 109.199 36.2418 109.972C36.4964 110.718 36.9771 111.366 37.6171 111.826C38.2571 112.286 39.0245 112.535 39.8127 112.539C40.6701 112.539 41.4072 112.327 41.9784 111.949C42.3071 111.735 42.5887 111.457 42.8062 111.13C43.0237 110.804 43.1725 110.437 43.2435 110.051H39.8116V107.654H45.8041C45.8777 108.074 45.9139 108.494 45.9139 108.919C45.9139 110.818 45.22 112.424 44.0215 113.507C42.969 114.456 41.5275 115.009 39.8116 115.009C38.6403 115.015 37.4901 114.698 36.4874 114.092C35.4848 113.487 34.6686 112.616 34.1286 111.577C33.6847 110.711 33.4531 109.751 33.4531 108.778C33.4531 107.805 33.6847 106.845 34.1286 105.979C34.6679 104.941 35.483 104.071 36.4843 103.466C37.4856 102.86 38.6344 102.542 39.8045 102.547L39.8127 102.548Z" fill="#091030"/>
</g>
<g filter="url(#filter4_d_4249_7529)">
<rect x="111.324" y="83.8555" width="77.8753" height="48.2827" rx="12.46" fill="white"/>
</g>
<g clip-path="url(#clip4_4249_7529)">
<path d="M151.011 105.49C150.986 107.451 152.759 108.546 154.095 109.197C155.468 109.865 155.929 110.293 155.923 110.89C155.913 111.804 154.828 112.208 153.814 112.223C152.043 112.251 151.014 111.745 150.195 111.363L149.558 114.348C150.379 114.726 151.899 115.056 153.476 115.07C157.177 115.07 159.598 113.243 159.611 110.411C159.625 106.816 154.639 106.617 154.673 105.011C154.684 104.523 155.149 104.003 156.168 103.871C156.672 103.804 158.064 103.753 159.642 104.48L160.262 101.593C159.413 101.284 158.322 100.988 156.964 100.988C153.481 100.988 151.031 102.839 151.011 105.49ZM166.214 101.236C165.538 101.236 164.968 101.631 164.714 102.235L159.428 114.858H163.126L163.862 112.824H168.381L168.808 114.858H172.067L169.223 101.236H166.214ZM166.731 104.916L167.798 110.031H164.875L166.731 104.916ZM146.527 101.237L143.612 114.858H147.136L150.05 101.236H146.527M141.314 101.236L137.646 110.508L136.162 102.625C135.988 101.745 135.301 101.236 134.537 101.236H128.541L128.457 101.632C129.688 101.899 131.087 102.33 131.934 102.791C132.452 103.072 132.6 103.319 132.771 103.988L135.581 114.858H139.305L145.015 101.236H141.314" fill="url(#paint0_linear_4249_7529)"/>
</g>
<g filter="url(#filter5_d_4249_7529)">
<rect x="209.449" y="83.8555" width="77.8753" height="48.2827" rx="12.46" fill="white"/>
</g>
<g clip-path="url(#clip5_4249_7529)">
<path d="M232.164 118.596V110.303H240.949L241.892 111.531L242.866 110.303H274.735V118.024C274.735 118.024 273.903 118.585 272.94 118.596H255.29L254.225 117.288V118.596H250.746V116.361C250.746 116.361 250.269 116.673 249.242 116.673H248.056V118.596H242.787L241.844 117.34L240.891 118.596H232.164Z" fill="white"/>
<path d="M221.914 104.049L223.895 99.4316H227.321L228.443 102.016V99.4316H232.701L233.368 101.301L234.014 99.4316H253.126V100.369C253.126 100.369 254.132 99.4316 255.779 99.4316L261.98 99.4528L263.087 102.005V99.4316H266.651L267.63 100.899V99.4316H271.226V107.73H267.63L266.693 106.258V107.73H261.461L260.937 106.422H259.528L259.009 107.73H255.461C254.042 107.73 253.131 106.808 253.131 106.808V107.73H247.772L246.708 106.422V107.73H226.812L226.288 106.422H224.885L224.361 107.73H221.914V104.049Z" fill="white"/>
<path d="M224.595 100.459L221.926 106.671H223.663L224.155 105.426H227.02L227.513 106.671H229.292L226.623 100.459H224.595ZM225.585 101.899L226.459 104.071H224.711L225.585 101.899Z" fill="#016FD0"/>
<path d="M229.469 106.667V100.455L231.942 100.466L233.377 104.469L234.78 100.455H237.232V106.667H235.68V102.091L234.033 106.667H232.673L231.02 102.091V106.667H229.469Z" fill="#016FD0"/>
<path d="M238.297 106.667V100.455H243.365V101.843H239.87V102.907H243.28V104.215H239.864V105.316H243.359V106.667H238.297Z" fill="#016FD0"/>
<path d="M244.262 100.459V106.671H245.813V104.462H246.465L248.329 106.671H250.224L248.18 104.383C249.017 104.314 249.886 103.594 249.886 102.477C249.886 101.169 248.858 100.464 247.714 100.464L244.262 100.459ZM245.813 101.846H247.587C248.011 101.846 248.323 102.18 248.323 102.498C248.323 102.911 247.921 103.149 247.608 103.149H245.813V101.846Z" fill="#016FD0"/>
<path d="M252.107 106.667H250.523V100.455H252.107V106.667Z" fill="#016FD0"/>
<path d="M255.862 106.665H255.518C253.86 106.665 252.859 105.363 252.859 103.589C252.859 101.772 253.855 100.459 255.941 100.459H257.657V101.931H255.883C255.036 101.931 254.432 102.593 254.432 103.605C254.432 104.807 255.121 105.31 256.106 105.31H256.513L255.862 106.665Z" fill="#016FD0"/>
<path d="M259.239 100.46L256.57 106.667H258.307L258.8 105.422H261.665L262.157 106.667H263.931L261.262 100.455L259.239 100.46ZM260.224 101.901L261.098 104.072H259.35L260.224 101.901Z" fill="#016FD0"/>
<path d="M264.113 106.667V100.455H266.089L268.609 104.358V100.455H270.161V106.667H268.249L265.665 102.663V106.667H264.113Z" fill="#016FD0"/>
<path d="M233.23 117.532V111.32H238.298V112.708H234.803V113.772H238.219V115.08H234.803V116.182H238.298V117.532H233.23Z" fill="#016FD0"/>
<path d="M258.051 117.532V111.32H263.119V112.708H259.624V113.772H263.023V115.08H259.624V116.182H263.119V117.532H258.051Z" fill="#016FD0"/>
<path d="M238.496 117.532L240.963 114.466L238.438 111.32H240.392L241.895 113.264L243.405 111.32H245.285L242.79 114.423L245.263 117.527H243.309L241.848 115.615L240.423 117.527L238.496 117.532Z" fill="#016FD0"/>
<path d="M245.445 111.326V117.538H247.039V115.578H248.676C250.058 115.578 251.106 114.842 251.106 113.418C251.106 112.237 250.285 111.331 248.877 111.331H245.445V111.326ZM247.039 112.729H248.76C249.205 112.729 249.528 113.005 249.528 113.444C249.528 113.857 249.21 114.159 248.755 114.159H247.039V112.729Z" fill="#016FD0"/>
<path d="M251.773 111.32V117.532H253.325V115.324H253.976L255.84 117.532H257.736L255.692 115.244C256.529 115.175 257.397 114.455 257.397 113.338C257.397 112.03 256.37 111.326 255.226 111.326L251.773 111.32ZM253.33 112.713H255.104C255.528 112.713 255.84 113.047 255.84 113.364C255.84 113.777 255.438 114.016 255.126 114.016H253.33V112.713Z" fill="#016FD0"/>
<path d="M263.837 117.533V116.182H266.945C267.406 116.182 267.602 115.933 267.602 115.663C267.602 115.404 267.406 115.139 266.945 115.139H265.542C264.324 115.139 263.641 114.398 263.641 113.28C263.641 112.285 264.265 111.326 266.077 111.326H269.1L268.449 112.724H265.833C265.335 112.724 265.182 112.989 265.182 113.238C265.182 113.497 265.372 113.778 265.754 113.778H267.226C268.587 113.778 269.174 114.551 269.174 115.563C269.174 116.648 268.518 117.538 267.152 117.538H263.837V117.533Z" fill="#016FD0"/>
<path d="M269.536 117.533V116.182H272.644C273.105 116.182 273.301 115.933 273.301 115.663C273.301 115.404 273.105 115.139 272.644 115.139H271.241C270.023 115.139 269.34 114.398 269.34 113.28C269.34 112.285 269.965 111.326 271.776 111.326H274.8L274.148 112.724H271.532C271.034 112.724 270.881 112.989 270.881 113.238C270.881 113.497 271.071 113.778 271.453 113.778H272.925C274.286 113.778 274.874 114.551 274.874 115.563C274.874 116.648 274.217 117.538 272.851 117.538H269.536V117.533Z" fill="#016FD0"/>
</g>
<g filter="url(#filter6_d_4249_7529)">
<rect x="13.2031" y="157.059" width="77.8753" height="48.2827" rx="12.46" fill="white"/>
</g>
<g clip-path="url(#clip6_4249_7529)">
<path d="M56.3526 187.065H47.9297V171.928H56.3526V187.065Z" fill="#6C6BBD"/>
<path d="M48.4647 179.494C48.4647 176.423 49.9023 173.688 52.1412 171.926C50.504 170.637 48.4375 169.867 46.192 169.867C40.8758 169.867 36.5664 174.177 36.5664 179.494C36.5664 184.811 40.8758 189.121 46.192 189.121C48.4376 189.121 50.504 188.352 52.1412 187.063C49.9023 185.3 48.4647 182.565 48.4647 179.494Z" fill="#D32011"/>
<path d="M67.716 179.494C67.716 184.811 63.4066 189.121 58.0904 189.121C55.8448 189.121 53.7784 188.352 52.1406 187.063C54.3801 185.3 55.8178 182.565 55.8178 179.494C55.8178 176.423 54.3801 173.688 52.1406 171.926C53.7784 170.637 55.8449 169.867 58.0904 169.867C63.4066 169.867 67.716 174.177 67.716 179.494Z" fill="#0099DF"/>
<path d="M59.2023 191.344C59.3143 191.344 59.4752 191.365 59.5983 191.414L59.4269 191.938C59.3094 191.889 59.1918 191.873 59.0793 191.873C58.7157 191.873 58.5339 192.108 58.5339 192.531V193.964H57.9776V191.408H58.5284V191.719C58.6729 191.494 58.8816 191.344 59.2023 191.344ZM57.147 191.916H56.2381V193.071C56.2381 193.328 56.3287 193.499 56.6072 193.499C56.7517 193.499 56.9333 193.451 57.0987 193.355L57.259 193.83C57.0828 193.953 56.8048 194.029 56.5643 194.029C55.9064 194.029 55.6769 193.675 55.6769 193.082V191.916H55.1579V191.408H55.6769V190.633H56.2381V191.408H57.147V191.916ZM50.0295 192.462C50.0888 192.093 50.313 191.841 50.7089 191.841C51.0669 191.841 51.297 192.066 51.3558 192.462H50.0295ZM51.9336 192.686C51.928 191.889 51.436 191.344 50.7193 191.344C49.9708 191.344 49.4468 191.889 49.4468 192.686C49.4468 193.498 49.9922 194.028 50.7572 194.028C51.1422 194.028 51.4947 193.932 51.805 193.67L51.5321 193.258C51.3185 193.429 51.0455 193.525 50.7891 193.525C50.431 193.525 50.1048 193.36 50.0246 192.9H51.9226C51.928 192.83 51.9335 192.761 51.9335 192.686H51.9336ZM54.377 192.061C54.2221 191.964 53.9068 191.841 53.5806 191.841C53.2758 191.841 53.094 191.954 53.094 192.141C53.094 192.312 53.2862 192.36 53.5268 192.392L53.7888 192.429C54.3451 192.51 54.6816 192.745 54.6816 193.194C54.6816 193.681 54.2538 194.028 53.5163 194.028C53.099 194.028 52.714 193.921 52.409 193.697L52.6711 193.263C52.8584 193.408 53.1369 193.531 53.5218 193.531C53.9013 193.531 54.1045 193.419 54.1045 193.221C54.1045 193.077 53.9601 192.996 53.6553 192.954L53.3933 192.916C52.821 192.836 52.5108 192.579 52.5108 192.162C52.5108 191.654 52.9281 191.344 53.5751 191.344C53.9815 191.344 54.3506 191.435 54.6174 191.611L54.3768 192.061H54.377ZM61.2349 191.872C61.1205 191.872 61.0146 191.892 60.9161 191.932C60.8207 191.971 60.7341 192.028 60.6614 192.101C60.5883 192.176 60.5309 192.264 60.4925 192.361C60.4515 192.462 60.4313 192.574 60.4313 192.695C60.4313 192.817 60.4515 192.927 60.4925 193.028C60.5335 193.129 60.5898 193.216 60.6614 193.288C60.7341 193.361 60.8207 193.419 60.9161 193.457C61.0146 193.498 61.1205 193.517 61.2349 193.517C61.3492 193.517 61.4558 193.498 61.5537 193.457C61.6495 193.419 61.7365 193.361 61.8095 193.288C61.8824 193.216 61.9388 193.129 61.9804 193.028C62.0214 192.927 62.0416 192.817 62.0416 192.695C62.0416 192.574 62.0214 192.462 61.9804 192.361C61.9388 192.26 61.8824 192.173 61.8095 192.101C61.7366 192.028 61.6496 191.971 61.5538 191.932C61.4524 191.892 61.3441 191.871 61.235 191.872L61.2349 191.872ZM61.2349 191.344C61.4332 191.344 61.6168 191.378 61.7857 191.447C61.949 191.512 62.098 191.609 62.224 191.731C62.348 191.853 62.4465 191.998 62.5135 192.159C62.5832 192.323 62.6181 192.502 62.6181 192.695C62.6181 192.888 62.5832 193.066 62.5135 193.231C62.4465 193.391 62.348 193.537 62.2239 193.659C62.101 193.779 61.9546 193.874 61.7858 193.943C61.6167 194.011 61.4332 194.046 61.2349 194.046C61.0365 194.046 60.8529 194.011 60.684 193.943C60.5151 193.874 60.3701 193.779 60.2477 193.659C60.1243 193.537 60.0263 193.391 59.9593 193.231C59.8896 193.066 59.8546 192.888 59.8546 192.695C59.8546 192.502 59.8896 192.323 59.9593 192.159C60.0263 191.999 60.1243 191.853 60.2477 191.731C60.3729 191.609 60.5212 191.512 60.684 191.447C60.8529 191.378 61.0365 191.344 61.2349 191.344ZM46.7808 192.686C46.7808 192.237 47.0753 191.868 47.5563 191.868C48.016 191.868 48.3263 192.221 48.3263 192.686C48.3263 193.151 48.016 193.504 47.5563 193.504C47.0753 193.504 46.7808 193.136 46.7808 192.686V192.686ZM48.8502 192.686V191.408H48.2944V191.719C48.1176 191.488 47.8508 191.344 47.4872 191.344C46.7705 191.344 46.2092 191.905 46.2092 192.686C46.2092 193.467 46.7705 194.028 47.4872 194.028C47.8508 194.028 48.1175 193.884 48.2944 193.654V193.964H48.8502V192.686V192.686ZM45.717 193.964V192.36C45.717 191.756 45.332 191.35 44.712 191.344C44.3858 191.339 44.0485 191.44 43.8135 191.799C43.6372 191.515 43.3588 191.344 42.9684 191.344C42.6959 191.344 42.4285 191.424 42.2198 191.724V191.408H41.6641V193.964H42.2253V192.547C42.2253 192.104 42.4713 191.868 42.8507 191.868C43.2199 191.868 43.4071 192.109 43.4071 192.542V193.964H43.9684V192.547C43.9684 192.104 44.2254 191.868 44.5939 191.868C44.974 191.868 45.1558 192.108 45.1558 192.542V193.964H45.717Z" fill="#110F0D"/>
</g>
<g filter="url(#filter7_d_4249_7529)">
<rect x="111.324" y="157.059" width="77.8753" height="48.2827" rx="12.46" fill="white"/>
</g>
<g clip-path="url(#clip7_4249_7529)">
<path d="M168.954 189.388C168.954 192.587 166.35 195.191 163.151 195.191H131.574V172.206C131.574 169.007 134.179 166.402 137.378 166.402H168.954V189.388Z" fill="white"/>
<path d="M158.672 183.492H161.071C161.14 183.492 161.299 183.47 161.368 183.47C161.825 183.378 162.213 182.967 162.213 182.396C162.213 181.847 161.825 181.436 161.368 181.322C161.299 181.299 161.162 181.299 161.071 181.299H158.672V183.492H158.672Z" fill="url(#paint1_linear_4249_7529)"/>
<path d="M160.799 168.346C158.514 168.346 156.64 170.197 156.64 172.504V176.823H162.512C162.649 176.823 162.809 176.823 162.923 176.845C164.249 176.914 165.231 177.599 165.231 178.787C165.231 179.724 164.568 180.524 163.335 180.684V180.73C164.683 180.821 165.711 181.575 165.711 182.74C165.711 183.997 164.568 184.82 163.06 184.82H156.617V193.274H162.718C165.003 193.274 166.876 191.423 166.876 189.115V168.346H160.799Z" fill="url(#paint2_linear_4249_7529)"/>
<path d="M161.916 179.06C161.916 178.512 161.528 178.146 161.071 178.077C161.025 178.077 160.911 178.055 160.843 178.055H158.672V180.065H160.843C160.911 180.065 161.048 180.065 161.071 180.043C161.528 179.974 161.916 179.608 161.916 179.06L161.916 179.06Z" fill="url(#paint3_linear_4249_7529)"/>
<path d="M137.814 168.344C135.529 168.344 133.656 170.195 133.656 172.502V182.761C134.821 183.332 136.032 183.698 137.243 183.698C138.682 183.698 139.459 182.83 139.459 181.642V176.798H143.024V181.619C143.024 183.492 141.858 185.023 137.906 185.023C135.506 185.023 133.633 184.498 133.633 184.498V193.249H139.733C142.018 193.249 143.892 191.398 143.892 189.09V168.344H137.814L137.814 168.344Z" fill="url(#paint4_linear_4249_7529)"/>
<path d="M149.307 168.344C147.022 168.344 145.148 170.195 145.148 172.502V177.94C146.2 177.049 148.027 176.478 150.975 176.615C152.551 176.684 154.242 177.118 154.242 177.118V178.877C153.397 178.443 152.392 178.054 151.089 177.963C148.85 177.803 147.502 178.9 147.502 180.819C147.502 182.761 148.85 183.858 151.089 183.675C152.392 183.584 153.397 183.173 154.242 182.761V184.521C154.242 184.521 152.574 184.955 150.975 185.023C148.027 185.16 146.2 184.589 145.149 183.698V193.294H151.249C153.534 193.294 155.408 191.444 155.408 189.136V168.344H149.307V168.344Z" fill="url(#paint5_linear_4249_7529)"/>
</g>
<g filter="url(#filter8_d_4249_7529)">
<rect x="209.449" y="157.059" width="77.8753" height="48.2827" rx="12.46" fill="white"/>
</g>
<g clip-path="url(#clip8_4249_7529)">
<path d="M270.192 181.499C270.192 178.398 268.69 175.951 265.819 175.951C262.936 175.951 261.191 178.398 261.191 181.475C261.191 185.121 263.251 186.963 266.207 186.963C267.648 186.963 268.738 186.636 269.562 186.175V183.752C268.739 184.164 267.794 184.419 266.594 184.419C265.419 184.419 264.377 184.007 264.244 182.577H270.168C270.168 182.42 270.192 181.79 270.192 181.499ZM264.208 180.348C264.208 178.98 265.044 178.41 265.807 178.41C266.546 178.41 267.333 178.98 267.333 180.348H264.208ZM256.516 175.951C255.328 175.951 254.565 176.508 254.141 176.896L253.984 176.145H251.319V190.27L254.347 189.628L254.359 186.199C254.795 186.514 255.437 186.963 256.503 186.963C258.672 186.963 260.646 185.218 260.646 181.378C260.634 177.865 258.636 175.951 256.516 175.951H256.516ZM255.789 184.298C255.074 184.298 254.65 184.043 254.359 183.728L254.347 179.234C254.662 178.883 255.098 178.64 255.789 178.64C256.891 178.64 257.654 179.876 257.654 181.463C257.654 183.086 256.903 184.298 255.789 184.298ZM247.151 175.236L250.192 174.582V172.123L247.151 172.765V175.236V175.236ZM247.151 176.157H250.192V186.757H247.151V176.157ZM243.893 177.053L243.699 176.157H241.082V186.757H244.111V179.573C244.826 178.64 246.037 178.81 246.413 178.943V176.157C246.025 176.012 244.608 175.745 243.893 177.053ZM237.836 173.528L234.88 174.158L234.868 183.861C234.868 185.654 236.213 186.975 238.006 186.975C238.999 186.975 239.726 186.793 240.125 186.575V184.116C239.738 184.273 237.824 184.831 237.824 183.038V178.737H240.125V176.157H237.824L237.836 173.528ZM229.647 179.234C229.647 178.762 230.034 178.58 230.677 178.58C231.597 178.58 232.76 178.858 233.681 179.355V176.508C232.675 176.109 231.682 175.951 230.677 175.951C228.217 175.951 226.582 177.235 226.582 179.379C226.582 182.723 231.185 182.19 231.185 183.631C231.185 184.188 230.701 184.37 230.022 184.37C229.017 184.37 227.733 183.958 226.715 183.401V186.284C227.842 186.769 228.981 186.975 230.022 186.975C232.542 186.975 234.274 185.727 234.274 183.559C234.262 179.949 229.647 180.591 229.647 179.234Z" fill="#635BFF"/>
</g>
<defs>
<filter id="filter0_d_4249_7529" x="0.743078" y="0.822246" width="102.795" height="73.2033" filterUnits="userSpaceOnUse" color-interpolation-filters="sRGB">
<feFlood flood-opacity="0" result="BackgroundImageFix"/>
<feColorMatrix in="SourceAlpha" type="matrix" values="0 0 0 0 0 0 0 0 0 0 0 0 0 0 0 0 0 0 127 0" result="hardAlpha"/>
<feOffset dy="2.62995"/>
<feGaussianBlur stdDeviation="6.23002"/>
<feComposite in2="hardAlpha" operator="out"/>
<feColorMatrix type="matrix" values="0 0 0 0 0 0 0 0 0 0 0 0 0 0 0 0 0 0 0.1 0"/>
<feBlend mode="normal" in2="BackgroundImageFix" result="effect1_dropShadow_4249_7529"/>
<feBlend mode="normal" in="SourceGraphic" in2="effect1_dropShadow_4249_7529" result="shape"/>
</filter>
<filter id="filter1_d_4249_7529" x="98.8642" y="0.822246" width="102.795" height="73.2033" filterUnits="userSpaceOnUse" color-interpolation-filters="sRGB">
<feFlood flood-opacity="0" result="BackgroundImageFix"/>
<feColorMatrix in="SourceAlpha" type="matrix" values="0 0 0 0 0 0 0 0 0 0 0 0 0 0 0 0 0 0 127 0" result="hardAlpha"/>
<feOffset dy="2.62995"/>
<feGaussianBlur stdDeviation="6.23002"/>
<feComposite in2="hardAlpha" operator="out"/>
<feColorMatrix type="matrix" values="0 0 0 0 0 0 0 0 0 0 0 0 0 0 0 0 0 0 0.1 0"/>
<feBlend mode="normal" in2="BackgroundImageFix" result="effect1_dropShadow_4249_7529"/>
<feBlend mode="normal" in="SourceGraphic" in2="effect1_dropShadow_4249_7529" result="shape"/>
</filter>
<filter id="filter2_d_4249_7529" x="196.989" y="0.822246" width="102.795" height="73.2033" filterUnits="userSpaceOnUse" color-interpolation-filters="sRGB">
<feFlood flood-opacity="0" result="BackgroundImageFix"/>
<feColorMatrix in="SourceAlpha" type="matrix" values="0 0 0 0 0 0 0 0 0 0 0 0 0 0 0 0 0 0 127 0" result="hardAlpha"/>
<feOffset dy="2.62995"/>
<feGaussianBlur stdDeviation="6.23002"/>
<feComposite in2="hardAlpha" operator="out"/>
<feColorMatrix type="matrix" values="0 0 0 0 0 0 0 0 0 0 0 0 0 0 0 0 0 0 0.1 0"/>
<feBlend mode="normal" in2="BackgroundImageFix" result="effect1_dropShadow_4249_7529"/>
<feBlend mode="normal" in="SourceGraphic" in2="effect1_dropShadow_4249_7529" result="shape"/>
</filter>
<filter id="filter3_d_4249_7529" x="0.743078" y="74.0254" width="102.795" height="73.2033" filterUnits="userSpaceOnUse" color-interpolation-filters="sRGB">
<feFlood flood-opacity="0" result="BackgroundImageFix"/>
<feColorMatrix in="SourceAlpha" type="matrix" values="0 0 0 0 0 0 0 0 0 0 0 0 0 0 0 0 0 0 127 0" result="hardAlpha"/>
<feOffset dy="2.62995"/>
<feGaussianBlur stdDeviation="6.23002"/>
<feComposite in2="hardAlpha" operator="out"/>
<feColorMatrix type="matrix" values="0 0 0 0 0 0 0 0 0 0 0 0 0 0 0 0 0 0 0.1 0"/>
<feBlend mode="normal" in2="BackgroundImageFix" result="effect1_dropShadow_4249_7529"/>
<feBlend mode="normal" in="SourceGraphic" in2="effect1_dropShadow_4249_7529" result="shape"/>
</filter>
<filter id="filter4_d_4249_7529" x="98.8642" y="74.0254" width="102.795" height="73.2033" filterUnits="userSpaceOnUse" color-interpolation-filters="sRGB">
<feFlood flood-opacity="0" result="BackgroundImageFix"/>
<feColorMatrix in="SourceAlpha" type="matrix" values="0 0 0 0 0 0 0 0 0 0 0 0 0 0 0 0 0 0 127 0" result="hardAlpha"/>
<feOffset dy="2.62995"/>
<feGaussianBlur stdDeviation="6.23002"/>
<feComposite in2="hardAlpha" operator="out"/>
<feColorMatrix type="matrix" values="0 0 0 0 0 0 0 0 0 0 0 0 0 0 0 0 0 0 0.1 0"/>
<feBlend mode="normal" in2="BackgroundImageFix" result="effect1_dropShadow_4249_7529"/>
<feBlend mode="normal" in="SourceGraphic" in2="effect1_dropShadow_4249_7529" result="shape"/>
</filter>
<filter id="filter5_d_4249_7529" x="196.989" y="74.0254" width="102.795" height="73.2033" filterUnits="userSpaceOnUse" color-interpolation-filters="sRGB">
<feFlood flood-opacity="0" result="BackgroundImageFix"/>
<feColorMatrix in="SourceAlpha" type="matrix" values="0 0 0 0 0 0 0 0 0 0 0 0 0 0 0 0 0 0 127 0" result="hardAlpha"/>
<feOffset dy="2.62995"/>
<feGaussianBlur stdDeviation="6.23002"/>
<feComposite in2="hardAlpha" operator="out"/>
<feColorMatrix type="matrix" values="0 0 0 0 0 0 0 0 0 0 0 0 0 0 0 0 0 0 0.1 0"/>
<feBlend mode="normal" in2="BackgroundImageFix" result="effect1_dropShadow_4249_7529"/>
<feBlend mode="normal" in="SourceGraphic" in2="effect1_dropShadow_4249_7529" result="shape"/>
</filter>
<filter id="filter6_d_4249_7529" x="0.743078" y="147.228" width="102.795" height="73.2033" filterUnits="userSpaceOnUse" color-interpolation-filters="sRGB">
<feFlood flood-opacity="0" result="BackgroundImageFix"/>
<feColorMatrix in="SourceAlpha" type="matrix" values="0 0 0 0 0 0 0 0 0 0 0 0 0 0 0 0 0 0 127 0" result="hardAlpha"/>
<feOffset dy="2.62995"/>
<feGaussianBlur stdDeviation="6.23002"/>
<feComposite in2="hardAlpha" operator="out"/>
<feColorMatrix type="matrix" values="0 0 0 0 0 0 0 0 0 0 0 0 0 0 0 0 0 0 0.1 0"/>
<feBlend mode="normal" in2="BackgroundImageFix" result="effect1_dropShadow_4249_7529"/>
<feBlend mode="normal" in="SourceGraphic" in2="effect1_dropShadow_4249_7529" result="shape"/>
</filter>
<filter id="filter7_d_4249_7529" x="98.8642" y="147.228" width="102.795" height="73.2033" filterUnits="userSpaceOnUse" color-interpolation-filters="sRGB">
<feFlood flood-opacity="0" result="BackgroundImageFix"/>
<feColorMatrix in="SourceAlpha" type="matrix" values="0 0 0 0 0 0 0 0 0 0 0 0 0 0 0 0 0 0 127 0" result="hardAlpha"/>
<feOffset dy="2.62995"/>
<feGaussianBlur stdDeviation="6.23002"/>
<feComposite in2="hardAlpha" operator="out"/>
<feColorMatrix type="matrix" values="0 0 0 0 0 0 0 0 0 0 0 0 0 0 0 0 0 0 0.1 0"/>
<feBlend mode="normal" in2="BackgroundImageFix" result="effect1_dropShadow_4249_7529"/>
<feBlend mode="normal" in="SourceGraphic" in2="effect1_dropShadow_4249_7529" result="shape"/>
</filter>
<filter id="filter8_d_4249_7529" x="196.989" y="147.228" width="102.795" height="73.2033" filterUnits="userSpaceOnUse" color-interpolation-filters="sRGB">
<feFlood flood-opacity="0" result="BackgroundImageFix"/>
<feColorMatrix in="SourceAlpha" type="matrix" values="0 0 0 0 0 0 0 0 0 0 0 0 0 0 0 0 0 0 127 0" result="hardAlpha"/>
<feOffset dy="2.62995"/>
<feGaussianBlur stdDeviation="6.23002"/>
<feComposite in2="hardAlpha" operator="out"/>
<feColorMatrix type="matrix" values="0 0 0 0 0 0 0 0 0 0 0 0 0 0 0 0 0 0 0.1 0"/>
<feBlend mode="normal" in2="BackgroundImageFix" result="effect1_dropShadow_4249_7529"/>
<feBlend mode="normal" in="SourceGraphic" in2="effect1_dropShadow_4249_7529" result="shape"/>
</filter>
<linearGradient id="paint0_linear_4249_7529" x1="148.506" y1="115.353" x2="148.914" y2="100.89" gradientUnits="userSpaceOnUse">
<stop stop-color="#222357"/>
<stop offset="1" stop-color="#254AA5"/>
</linearGradient>
<linearGradient id="paint1_linear_4249_7529" x1="156.634" y1="182.398" x2="166.902" y2="182.398" gradientUnits="userSpaceOnUse">
<stop stop-color="#007940"/>
<stop offset="0.2285" stop-color="#00873F"/>
<stop offset="0.7433" stop-color="#40A737"/>
<stop offset="1" stop-color="#5CB531"/>
</linearGradient>
<linearGradient id="paint2_linear_4249_7529" x1="156.636" y1="180.8" x2="166.904" y2="180.8" gradientUnits="userSpaceOnUse">
<stop stop-color="#007940"/>
<stop offset="0.2285" stop-color="#00873F"/>
<stop offset="0.7433" stop-color="#40A737"/>
<stop offset="1" stop-color="#5CB531"/>
</linearGradient>
<linearGradient id="paint3_linear_4249_7529" x1="156.634" y1="179.057" x2="166.903" y2="179.057" gradientUnits="userSpaceOnUse">
<stop stop-color="#007940"/>
<stop offset="0.2285" stop-color="#00873F"/>
<stop offset="0.7433" stop-color="#40A737"/>
<stop offset="1" stop-color="#5CB531"/>
</linearGradient>
<linearGradient id="paint4_linear_4249_7529" x1="133.651" y1="180.798" x2="144.077" y2="180.798" gradientUnits="userSpaceOnUse">
<stop stop-color="#1F286F"/>
<stop offset="0.4751" stop-color="#004E94"/>
<stop offset="0.8261" stop-color="#0066B1"/>
<stop offset="1" stop-color="#006FBC"/>
</linearGradient>
<linearGradient id="paint5_linear_4249_7529" x1="145.089" y1="180.798" x2="155.216" y2="180.798" gradientUnits="userSpaceOnUse">
<stop stop-color="#6C2C2F"/>
<stop offset="0.1735" stop-color="#882730"/>
<stop offset="0.5731" stop-color="#BE1833"/>
<stop offset="0.8585" stop-color="#DC0436"/>
<stop offset="1" stop-color="#E60039"/>
</linearGradient>
<clipPath id="clip0_4249_7529">
<rect width="21.8051" height="25.7232" fill="white" transform="translate(41.2383 22.1152)"/>
</clipPath>
<clipPath id="clip1_4249_7529">
<rect width="31.1501" height="24.2143" fill="white" transform="translate(134.688 23.9766)"/>
</clipPath>
<clipPath id="clip2_4249_7529">
<rect width="43.6102" height="43.6102" fill="white" transform="translate(226.582 13.7676)"/>
</clipPath>
<clipPath id="clip3_4249_7529">
<rect width="37.3801" height="37.3801" fill="white" transform="translate(33.4531 90.0859)"/>
</clipPath>
<clipPath id="clip4_4249_7529">
<rect width="43.6102" height="14.1392" fill="white" transform="translate(128.457 100.988)"/>
</clipPath>
<clipPath id="clip5_4249_7529">
<rect width="52.9552" height="19.1592" fill="white" transform="translate(221.91 99.4316)"/>
</clipPath>
<clipPath id="clip6_4249_7529">
<rect width="31.1501" height="24.2143" fill="white" transform="translate(36.5664 169.867)"/>
</clipPath>
<clipPath id="clip7_4249_7529">
<rect width="37.3801" height="28.9112" fill="white" transform="translate(131.574 166.402)"/>
</clipPath>
<clipPath id="clip8_4249_7529">
<rect width="43.6102" height="18.2277" fill="white" transform="translate(226.582 172.123)"/>
</clipPath>
</defs>
</svg>
