<?xml version="1.0" standalone="no"?>
<!DOCTYPE svg PUBLIC "-//W3C//DTD SVG 20010904//EN"
 "http://www.w3.org/TR/2001/REC-SVG-20010904/DTD/svg10.dtd">
<svg version="1.0" xmlns="http://www.w3.org/2000/svg"
 width="866.000000pt" height="650.000000pt" viewBox="0 0 866.000000 650.000000"
 preserveAspectRatio="xMidYMid meet">

<g transform="translate(0.000000,650.000000) scale(0.100000,-0.100000)"
fill="#ffffff" stroke="none">
<path d="M4170 5960 c-58 -21 -386 -140 -730 -265 -344 -124 -632 -228 -640
-231 -8 -3 36 -24 100 -47 l115 -42 3 -233 2 -234 -25 -30 c-30 -36 -32 -67
-4 -102 17 -21 18 -26 5 -26 -9 0 -16 -4 -16 -9 0 -5 -11 -91 -25 -192 -14
-101 -25 -187 -25 -191 0 -5 54 -8 120 -8 66 0 120 3 120 8 0 4 -11 90 -25
191 -14 101 -25 187 -25 192 0 5 -7 9 -16 9 -13 0 -12 5 5 26 28 35 26 66 -4
102 -25 30 -25 30 -25 244 0 118 2 217 5 220 3 3 90 -26 193 -63 103 -38 192
-69 198 -69 7 0 14 8 16 18 4 12 40 27 139 54 270 75 459 101 729 101 282 0
514 -35 740 -113 l86 -29 298 108 c275 100 295 109 269 119 -59 23 -409 150
-1247 453 -120 43 -222 79 -225 79 -3 -1 -53 -18 -111 -40z"/>
<path d="M4110 5299 c-112 -12 -322 -53 -435 -85 -49 -14 -100 -28 -112 -31
-12 -3 -25 -13 -27 -22 -3 -9 -41 -144 -86 -301 -44 -157 -83 -290 -85 -297
-2 -7 23 -1 63 14 167 63 344 103 567 129 188 22 530 15 730 -16 145 -21 416
-84 519 -120 33 -11 60 -19 61 -18 3 4 -172 619 -177 624 -13 12 -211 68 -312
89 -218 43 -486 56 -706 34z"/>
<path d="M4077 4595 c-197 -24 -430 -85 -577 -151 -50 -22 -62 -33 -97 -93
-80 -134 -137 -291 -168 -468 -8 -49 -22 -187 -30 -308 -8 -121 -20 -249 -26
-285 -23 -141 -94 -295 -188 -407 -111 -132 -168 -234 -220 -393 -78 -238 -91
-492 -35 -681 l16 -53 35 45 c69 86 270 275 363 342 214 152 471 250 717 273
72 6 73 6 141 -34 222 -132 444 -131 673 3 l60 35 77 -11 c202 -27 425 -106
615 -219 151 -88 361 -271 448 -389 12 -17 26 -31 30 -31 4 0 15 33 25 73 26
98 25 317 0 437 -52 245 -140 423 -312 630 -61 74 -129 216 -153 320 -11 47
-24 163 -31 260 -25 410 -67 604 -171 799 -65 121 -89 146 -177 179 -320 123
-677 168 -1015 127z m20 -594 c174 -126 433 -265 598 -320 142 -47 241 -63
360 -59 l105 3 0 -39 c0 -21 -7 -86 -16 -143 -45 -309 -152 -554 -317 -729
-251 -266 -560 -312 -834 -122 -264 183 -438 554 -469 1000 l-6 93 50 18 c85
29 201 115 322 237 63 64 120 115 127 114 6 -2 43 -25 80 -53z"/>
<path d="M3585 2214 c-38 -13 -101 -39 -140 -57 l-70 -33 463 -347 c254 -191
464 -347 467 -347 5 0 219 154 750 538 110 80 204 148 209 153 14 12 -236 119
-280 119 -8 0 -158 -115 -334 -256 -176 -140 -324 -252 -330 -249 -6 4 -151
119 -323 256 -172 137 -319 249 -327 249 -8 -1 -46 -12 -85 -26z"/>
<path d="M3171 1984 c-222 -175 -417 -421 -576 -726 -65 -125 -159 -338 -152
-345 12 -12 189 -92 297 -134 327 -129 745 -225 1130 -258 638 -55 1276 23
1918 234 159 52 407 146 420 160 9 8 -53 154 -129 305 -77 152 -167 299 -260
422 -110 146 -389 408 -434 408 -6 0 -41 -21 -76 -48 -35 -26 -194 -141 -354
-256 -159 -115 -370 -268 -469 -339 -160 -117 -181 -129 -199 -118 -11 7 -244
181 -518 387 -274 206 -502 374 -507 374 -4 0 -45 -30 -91 -66z m2459 -674 l0
-70 -284 0 -284 0 -4 54 c-6 94 -33 86 288 86 l284 0 0 -70z"/>
</g>
</svg>
